<svg viewBox="0 0 80 35.2451" xmlns="http://www.w3.org/2000/svg" xmlns:xlink="http://www.w3.org/1999/xlink" width="80.000000" height="35.245117" fill="none" customFrame="#000000">
	<g id="logo">
		<path id="Dignity" d="M57.6358 8.42902L57.6358 5.74133L59.8258 5.74133L59.8258 0.000976562L62.6462 0.000976562L62.6462 5.74133L64.7698 5.74133L64.7698 8.4622L62.6462 8.4622L62.6462 17.9852C62.6462 19.5558 63.2877 20.4296 64.5707 20.6065C64.814 20.6508 65.0574 20.6729 65.3007 20.6729L65.7653 20.6729L66.3957 23.4933L65.2012 23.4933C62.4803 23.4712 60.8102 22.4536 60.1908 20.4406C59.9696 19.6885 59.859 18.7594 59.859 17.6534L59.8258 8.42902L57.6358 8.42902ZM0 23.4933L0 0.266427L2.88677 0.266427L2.88677 23.4933L0 23.4933ZM4.54583 23.4933L4.54583 20.6397C6.80216 20.6397 8.31744 20.2858 9.09166 19.5779C9.75529 18.9585 10.0871 18.0848 10.0871 16.9566L10.0871 6.80313Q10.0871 5.61203 9.52945 4.80741Q8.72004 3.63955 6.7358 3.28592Q5.80672 3.12001 4.54583 3.12001L4.54583 0.266427Q9.5299 0.266427 11.6077 2.72379L11.6077 2.7238Q11.9921 3.17848 12.2771 3.71728C12.7637 4.60211 13.0071 5.63073 13.0071 6.80313L13.0071 16.9566C13.0071 21.1153 10.4742 23.2942 5.40854 23.4933L4.54583 23.4933ZM15.8275 3.08683C15.8275 2.40109 16.1482 1.91443 16.7897 1.62686Q17.1215 1.49413 17.4533 1.49413C18.117 1.49413 18.6036 1.80382 18.9133 2.42321Q19.046 2.75502 19.046 3.08683C19.046 3.75046 18.7363 4.23712 18.117 4.54681C17.8958 4.63529 17.6745 4.67953 17.4533 4.67953C16.7676 4.67953 16.2699 4.36984 15.9602 3.75046C15.8717 3.52925 15.8275 3.30804 15.8275 3.08683ZM52.3268 3.08683C52.3268 2.40109 52.6476 1.91443 53.2891 1.62686C53.5103 1.53837 53.7315 1.49413 53.9527 1.49413C54.6163 1.49413 55.103 1.80382 55.4127 2.42321C55.5012 2.64442 55.5454 2.86562 55.5454 3.08683C55.5454 3.75046 55.2357 4.23712 54.6163 4.54681C54.3951 4.63529 54.1739 4.67953 53.9527 4.67953C53.267 4.67953 52.7693 4.36984 52.4596 3.75046C52.3711 3.52925 52.3268 3.30804 52.3268 3.08683ZM21.4019 29.6318L22.0987 27.0437L28.3368 27.0437C29.5756 26.9995 30.4825 26.5128 31.0577 25.5837C31.2346 25.274 31.3231 24.9975 31.3231 24.7542L31.3231 22.3651C30.4162 23.0066 29.5092 23.3495 28.6022 23.3938L28.6022 20.8388C29.5756 20.8388 30.3498 20.4296 30.9249 19.6111C31.1904 19.235 31.3231 18.859 31.3231 18.4829L31.3231 10.3535C31.3231 9.51294 30.8586 8.84931 29.9295 8.36265C29.4871 8.14144 29.0447 8.03084 28.6022 8.03084L28.6022 5.40952Q29.4189 5.40952 30.1264 5.68747L30.1265 5.68748Q30.7125 5.9177 31.2236 6.3386C31.2678 6.36072 31.301 6.38284 31.3231 6.40496L31.3231 5.40952L34.0108 5.40952L34.0108 24.7542C34.0108 25.7054 33.5794 26.6898 32.7167 27.7073C31.6328 28.9682 30.2945 29.6097 28.7018 29.6318L21.4019 29.6318ZM21.7337 18.5161L21.7337 10.2208Q21.7348 10.1692 21.7374 10.1177L21.7375 10.1159Q21.8127 8.61101 23.1273 7.16813C24.2113 6.01784 25.5496 5.43164 27.1423 5.40952L27.1423 8.03084C26.0583 8.03084 25.2399 8.49538 24.6869 9.42445C24.4878 9.75627 24.3882 10.0549 24.3882 10.3203L24.3882 18.4829C24.3882 19.1466 24.7311 19.7328 25.4168 20.2415Q25.7253 20.4561 26.0662 20.5839Q26.5689 20.7724 27.1423 20.7724L27.1423 23.3938C25.1072 23.3716 23.5587 22.5089 22.4969 20.8056C21.9881 19.9872 21.7337 19.224 21.7337 18.5161ZM36.5657 23.4933L36.5657 10.3867C36.5657 9.32491 37.0413 8.28523 37.9925 7.26767Q38.7827 6.46262 39.7403 6.01927Q40.914 5.47588 42.3393 5.47588L42.3393 8.22993Q41.3874 8.22993 40.6875 8.64989Q40.1431 8.97653 39.7511 9.55718C39.5078 9.93323 39.3862 10.3203 39.3862 10.7185L39.3862 23.4933L36.5657 23.4933ZM43.7993 8.22993L43.7993 5.47588C45.8565 5.47588 47.4603 6.30541 48.6105 7.96448C49.2299 8.82719 49.5396 9.6346 49.5396 10.3867L49.5396 23.4933L46.7192 23.4933L46.7192 10.7185C46.7192 10.0328 46.3763 9.42445 45.6906 8.89355C45.1376 8.45114 44.5071 8.22993 43.7993 8.22993ZM66.7275 5.54225L69.6806 5.54225L74.7242 19.5779L71.3065 29.7977L68.4861 29.7977L71.7379 19.5447L66.7275 5.54225ZM74.0606 13.2403L77.0801 5.54225L80 5.54225L75.5869 17.1225L75.2883 17.1225L74.0606 13.2403ZM16.0597 23.4933L16.0597 6.00678L18.847 6.00678L18.847 23.4933L16.0597 23.4933ZM52.5591 23.4933L52.5591 6.00678L55.3463 6.00678L55.3463 23.4933L52.5591 23.4933Z" fill="rgb(17,17,17)" fill-rule="evenodd" />
		<path id="Codes" d="M52.4077 24.9092L52.3932 35.1726L53.6561 35.1726L53.6561 24.9092L52.4077 24.9092ZM62.613 27.5803C61.8097 28.0061 61.4081 28.6594 61.4081 29.54C61.4081 29.7336 61.4274 29.9175 61.4662 30.0917C61.621 30.682 62.0662 31.1224 62.8017 31.4127C63.0049 31.4804 63.334 31.5676 63.7888 31.674C64.2147 31.7805 64.5244 31.8627 64.7179 31.9208C65.4825 32.1531 65.8647 32.4628 65.8647 32.8499C65.8647 33.1499 65.7583 33.4112 65.5454 33.6338C65.2454 33.9435 64.8728 34.0983 64.4276 34.0983L64.4276 35.2451C64.9889 35.2451 65.4873 35.1145 65.9228 34.8532C66.668 34.408 67.0406 33.7209 67.0406 32.7918C67.0406 32.4531 66.968 32.1482 66.8229 31.8772C66.5422 31.3643 66.0728 31.0401 65.4147 30.9046C64.3598 30.653 63.6485 30.4498 63.2808 30.2949C62.7969 30.1014 62.5549 29.8497 62.5549 29.54Q62.5549 29.466 62.566 29.3937Q62.6007 29.1682 62.7436 28.9594C62.9856 28.5916 63.3291 28.4077 63.7743 28.4077L63.7743 27.2754C63.3872 27.2754 63.0001 27.377 62.613 27.5803ZM64.4131 27.2754L64.4131 28.4222C64.5582 28.4222 64.7179 28.4561 64.8921 28.5239Q65.426 28.7196 65.6326 29.0953Q65.7631 29.3326 65.7631 29.6417L66.91 29.4529C66.91 29.0174 66.7503 28.6013 66.4309 28.2045C65.918 27.5851 65.2454 27.2754 64.4131 27.2754ZM35.9021 34.4322C35.5053 34.0064 35.3069 33.537 35.3069 33.0241L35.3069 29.4675Q35.3069 28.9448 35.6553 28.4077Q35.9471 27.9517 36.3612 27.6867L36.3612 27.6867L36.3612 27.6867Q36.9358 27.319 37.7457 27.319L37.7457 28.4803Q37.465 28.4803 37.2231 28.5771L37.2231 28.5771Q37.1021 28.6255 36.9908 28.6981Q36.6297 28.9498 36.5408 29.2757L36.5408 29.2757Q36.5118 29.3821 36.5118 29.4965L36.5118 33.0241C36.5118 33.1596 36.5505 33.2951 36.6279 33.4305Q36.7436 33.6317 36.9132 33.7631Q37.2333 34.0112 37.7457 34.0112L37.7457 35.1726Q36.9572 35.1726 36.3815 34.8226Q36.1198 34.6635 35.9021 34.4322ZM39.0514 28.6805Q38.7915 28.4948 38.399 28.4948L38.399 27.319Q38.7689 27.319 39.104 27.4271Q39.4527 27.5395 39.7635 27.769Q40.238 28.1327 40.454 28.6127L40.454 28.6127L40.454 28.6128L40.454 28.6128Q40.6345 29.014 40.6345 29.4965L39.5022 29.932L39.5022 29.5836C39.4926 29.4191 39.4538 29.2594 39.3861 29.1045Q39.2625 28.8313 39.0514 28.6805ZM41.7233 33.0241L41.7233 29.4384Q41.7233 29.4021 41.725 29.366Q41.7557 28.7214 42.333 28.1029Q42.6617 27.7616 43.0619 27.5689L43.0619 27.5688L43.062 27.5688Q43.5809 27.319 44.2202 27.319L44.2202 28.4948C43.6492 28.4948 43.2524 28.7319 43.0298 29.2062C42.9621 29.3513 42.9282 29.4965 42.9282 29.6417L42.9282 32.8354Q42.9282 33.0065 42.9783 33.1615Q43.0855 33.4928 43.4218 33.7499C43.654 33.9241 43.9202 34.0112 44.2202 34.0112L44.2202 35.1871Q43.4959 35.1871 42.9438 34.8787Q42.4446 34.6 42.0862 34.0693C41.8443 33.7015 41.7233 33.3531 41.7233 33.0241ZM44.8444 35.1871L44.8444 34.0112Q45.2262 34.0112 45.5008 33.8396Q45.7795 33.6654 45.9477 33.3144C46.0251 33.1596 46.0638 33.0096 46.0638 32.8644L46.0638 29.6417Q46.0638 29.3677 45.9562 29.146L45.9561 29.1459Q45.8299 28.8861 45.5557 28.6981C45.3428 28.5626 45.1009 28.4948 44.8299 28.4948L44.8299 27.319Q45.5283 27.319 46.06 27.6167Q46.545 27.8883 46.8913 28.4077C47.1332 28.7658 47.2542 29.1094 47.2542 29.4384L47.2542 33.0241Q47.2542 33.0827 47.2501 33.1411L47.25 33.1413L47.25 33.1414L47.25 33.1417Q47.2037 33.7908 46.6445 34.4032Q46.3326 34.7405 45.9482 34.9327L45.9482 34.9327Q45.4558 35.1789 44.8444 35.1871ZM54.8175 33.0241L54.8175 29.4239C54.8271 28.9787 55.0401 28.5384 55.4562 28.1029C55.9594 27.5899 56.5692 27.3286 57.2853 27.319L57.2853 28.4658C56.8208 28.4658 56.4579 28.669 56.1966 29.0755C56.0901 29.2497 56.0369 29.4094 56.0369 29.5546L56.0369 30.5417L59.2886 30.5417L59.2886 29.5546Q59.2886 29.2925 59.1812 29.0865Q59.0207 28.779 58.6209 28.5964C58.4176 28.4997 58.2096 28.4513 57.9966 28.4513L57.9966 27.319Q58.3914 27.319 58.7524 27.4295Q59.3073 27.5993 59.7822 28.0303Q60.2981 28.5233 60.4156 29.0978Q60.4469 29.2507 60.45 29.4094L60.45 31.7176L56.0369 31.7176L56.0369 33.0241C56.0369 33.2951 56.1917 33.5467 56.5014 33.7789C56.753 33.9531 57.0192 34.0402 57.2998 34.0402L57.2998 35.1726C56.4191 35.1726 55.7272 34.8145 55.2239 34.0983Q54.8175 33.5322 54.8175 33.0241ZM48.2414 29.4384L48.2414 33.0241C48.2414 33.3434 48.3575 33.687 48.5898 34.0548C49.064 34.8 49.7317 35.1726 50.5931 35.1726L51.6964 35.1726L51.6964 33.9967L50.5786 33.9967C50.3656 33.9967 50.1576 33.9289 49.9543 33.7935C49.6059 33.5709 49.4317 33.3047 49.4317 32.995L49.4317 29.511C49.4317 29.3658 49.485 29.211 49.5914 29.0465Q49.8232 28.7166 50.1372 28.5893Q50.3344 28.5093 50.564 28.5093L51.6964 28.5093L51.6964 27.3335L50.5495 27.3335C49.9398 27.3335 49.4075 27.5512 48.9527 27.9867C48.4881 28.4319 48.251 28.9158 48.2414 29.4384ZM39.1548 35.0775Q38.7963 35.1927 38.399 35.1871L38.399 34.0112Q38.5419 34.0112 38.6793 33.9837L38.6794 33.9837Q38.7653 33.9665 38.849 33.9386Q39.1916 33.8244 39.3912 33.589L39.3912 33.589Q39.6229 33.3157 39.6619 32.8789L39.6764 32.8499L39.6764 32.5595L40.8088 32.9805Q40.8088 33.159 40.7759 33.3312Q40.6673 33.9014 40.199 34.4032Q39.7263 34.8938 39.1549 35.0774L39.1548 35.0775ZM62.4823 32.8934L61.3355 33.1112C61.3355 33.4983 61.4565 33.8709 61.6984 34.229C62.163 34.9064 62.8646 35.2451 63.8034 35.2451L63.8034 34.0983C63.6001 34.0886 63.3872 34.0306 63.1646 33.9241C62.7098 33.6725 62.4823 33.3289 62.4823 32.8934ZM57.9966 35.1726L57.9966 34.0257C58.5773 34.0257 59.0128 33.7741 59.3032 33.2709Q59.3903 33.1112 59.4338 32.966L60.4645 33.3434C60.2903 34.0112 59.8935 34.5145 59.2741 34.8532C58.8773 35.0661 58.4515 35.1726 57.9966 35.1726Z" fill="rgb(17,17,17)" fill-rule="evenodd" />
	</g>
</svg>
