<svg viewBox="0 0 780 399" xmlns="http://www.w3.org/2000/svg" xmlns:xlink="http://www.w3.org/1999/xlink" fill="none" customFrame="#000000">
	<g id="карта заведения">
		<g id="танцпол">
			<path id="Ellipse 38" d="M462 82.5C462 121.436 430.436 153 391.5 153C352.564 153 321 121.436 321 82.5C321 43.5639 352.564 12 391.5 12C430.436 12 462 43.5639 462 82.5Z" fill="rgb(31,30,30)" fill-rule="nonzero" />
			<path id="Танцпол" d="M362.453 89.207L360.586 89.207L360.586 79.3867L357.227 79.3867L357.227 77.7852L365.812 77.7852L365.812 79.3867L362.453 79.3867L362.453 89.207ZM372.781 89.207L372.414 88.0039L372.352 88.0039C371.935 88.5299 371.516 88.8893 371.094 89.082C370.672 89.2695 370.13 89.3633 369.469 89.3633C368.62 89.3633 367.956 89.1341 367.477 88.6758C367.003 88.2174 366.766 87.569 366.766 86.7305C366.766 85.8398 367.096 85.168 367.758 84.7148C368.419 84.2617 369.427 84.0143 370.781 83.9727L372.273 83.9258L372.273 83.4648C372.273 82.9128 372.143 82.5013 371.883 82.2305C371.628 81.9544 371.229 81.8164 370.688 81.8164C370.245 81.8164 369.82 81.8815 369.414 82.0117C369.008 82.1419 368.617 82.2956 368.242 82.4727L367.648 81.1602C368.117 80.9154 368.63 80.7305 369.188 80.6055C369.745 80.4753 370.271 80.4102 370.766 80.4102C371.865 80.4102 372.693 80.6497 373.25 81.1289C373.812 81.6081 374.094 82.3607 374.094 83.3867L374.094 89.207L372.781 89.207ZM370.047 87.957C370.714 87.957 371.247 87.7721 371.648 87.4023C372.055 87.0273 372.258 86.5039 372.258 85.832L372.258 85.082L371.148 85.1289C370.284 85.1602 369.654 85.306 369.258 85.5664C368.867 85.8216 368.672 86.2148 368.672 86.7461C368.672 87.1315 368.786 87.431 369.016 87.6445C369.245 87.8529 369.589 87.957 370.047 87.957ZM378.492 80.5664L378.492 84.0352L382.562 84.0352L382.562 80.5664L384.398 80.5664L384.398 89.207L382.562 89.207L382.562 85.4805L378.492 85.4805L378.492 89.207L376.656 89.207L376.656 80.5664L378.492 80.5664ZM394.727 87.7852L395.977 87.7852L395.977 92.2461L394.25 92.2461L394.25 89.207L387.031 89.207L387.031 80.5664L388.867 80.5664L388.867 87.7539L392.891 87.7539L392.891 80.5664L394.727 80.5664L394.727 87.7852ZM405.102 80.5664L405.102 89.207L403.258 89.207L403.258 82.0195L399.383 82.0195L399.383 89.207L397.547 89.207L397.547 80.5664L405.102 80.5664ZM415.398 84.8711C415.398 86.2826 415.036 87.3841 414.312 88.1758C413.589 88.9674 412.581 89.3633 411.289 89.3633C410.482 89.3633 409.768 89.181 409.148 88.8164C408.529 88.4518 408.052 87.9284 407.719 87.2461C407.385 86.5638 407.219 85.7721 407.219 84.8711C407.219 83.4701 407.578 82.3763 408.297 81.5898C409.016 80.8034 410.029 80.4102 411.336 80.4102C412.586 80.4102 413.576 80.8138 414.305 81.6211C415.034 82.4232 415.398 83.5065 415.398 84.8711ZM409.109 84.8711C409.109 86.8659 409.846 87.8633 411.32 87.8633C412.779 87.8633 413.508 86.8659 413.508 84.8711C413.508 82.8971 412.773 81.9102 411.305 81.9102C410.534 81.9102 409.974 82.1654 409.625 82.6758C409.281 83.1862 409.109 83.918 409.109 84.8711ZM424.617 89.207L422.766 89.207L422.766 82.0039L420.383 82.0039C420.237 83.8581 420.039 85.306 419.789 86.3477C419.544 87.3893 419.221 88.1497 418.82 88.6289C418.424 89.1081 417.909 89.3477 417.273 89.3477C416.872 89.3477 416.536 89.2904 416.266 89.1758L416.266 87.7383C416.458 87.8112 416.651 87.8477 416.844 87.8477C417.375 87.8477 417.792 87.2513 418.094 86.0586C418.401 84.8607 418.641 83.0299 418.812 80.5664L424.617 80.5664L424.617 89.207Z" fill="rgb(255,255,255)" fill-rule="nonzero" />
		</g>
		<g id="10 стол">
			<path id="Rectangle 182" d="M15 65L110 65L110 0L142 0L142 64.8261L142 93L15 93L15 65Z" fill="rgb(31,30,30)" fill-rule="nonzero" />
			<path id="10" d="M121.199 85.2588L117.283 85.2588L117.283 77.7002C117.283 76.7822 117.303 75.9424 117.342 75.1807C117.101 75.4736 116.801 75.7796 116.443 76.0986L114.822 77.4365L112.82 74.9756L117.723 70.9814L121.199 70.9814L121.199 85.2588ZM134.734 78.1396C134.734 80.6657 134.311 82.5179 133.465 83.6963C132.618 84.8682 131.323 85.4541 129.578 85.4541C127.872 85.4541 126.587 84.8421 125.721 83.6182C124.855 82.3877 124.422 80.5615 124.422 78.1396C124.422 75.6006 124.845 73.7386 125.691 72.5537C126.538 71.3688 127.833 70.7764 129.578 70.7764C131.277 70.7764 132.56 71.3949 133.426 72.6318C134.298 73.8623 134.734 75.6982 134.734 78.1396ZM128.26 78.1396C128.26 79.7542 128.361 80.8643 128.562 81.4697C128.764 82.0752 129.103 82.3779 129.578 82.3779C130.06 82.3779 130.398 82.0654 130.594 81.4404C130.796 80.8154 130.896 79.7152 130.896 78.1396C130.896 76.5576 130.796 75.4508 130.594 74.8193C130.392 74.1813 130.053 73.8623 129.578 73.8623C129.103 73.8623 128.764 74.1683 128.562 74.7803C128.361 75.3923 128.26 76.512 128.26 78.1396Z" fill="rgb(255,255,255)" fill-rule="nonzero" />
			<circle id="Ellipse 95" cx="27" cy="50" r="12" fill="rgb(31,30,30)" />
			<circle id="Ellipse 96" cx="61" cy="50" r="12" fill="rgb(31,30,30)" />
			<circle id="Ellipse 97" cx="94" cy="50" r="12" fill="rgb(31,30,30)" />
			<circle id="Ellipse 98" cx="94" cy="16" r="12" fill="rgb(31,30,30)" />
		</g>
		<g id="2 стол">
			<rect id="Rectangle 196" width="40.000000" height="93.000000" x="712.500000" y="4.500000" stroke="rgb(31,30,30)" stroke-width="1" />
			<path id="2" d="M737.957 60.2588L727.596 60.2588L727.596 57.7197L731.082 54.1943C732.078 53.1527 732.729 52.443 733.035 52.0654C733.341 51.6813 733.553 51.3525 733.67 51.0791C733.794 50.8057 733.855 50.5192 733.855 50.2197C733.855 49.8486 733.735 49.5557 733.494 49.3408C733.253 49.126 732.915 49.0186 732.479 49.0186C732.029 49.0186 731.574 49.1488 731.111 49.4092C730.656 49.6631 730.138 50.0407 729.559 50.542L727.439 48.0615C728.175 47.404 728.794 46.9352 729.295 46.6553C729.796 46.3688 730.34 46.1507 730.926 46.001C731.518 45.8512 732.182 45.7764 732.918 45.7764C733.842 45.7764 734.666 45.9391 735.389 46.2646C736.118 46.5902 736.681 47.0557 737.078 47.6611C737.482 48.2601 737.684 48.9339 737.684 49.6826C737.684 50.2425 737.612 50.7601 737.469 51.2354C737.332 51.7106 737.117 52.1794 736.824 52.6416C736.531 53.0973 736.141 53.5791 735.652 54.0869C735.171 54.5947 734.139 55.5583 732.557 56.9775L732.557 57.0752L737.957 57.0752L737.957 60.2588Z" fill="rgb(31,30,30)" fill-rule="nonzero" />
			<circle id="Ellipse 60" cx="697" cy="16" r="11.5" stroke="rgb(31,30,30)" stroke-width="1" />
			<circle id="Ellipse 63" cx="768" cy="17" r="11.5" stroke="rgb(31,30,30)" stroke-width="1" />
			<circle id="Ellipse 61" cx="697" cy="49" r="11.5" stroke="rgb(31,30,30)" stroke-width="1" />
			<circle id="Ellipse 64" cx="768" cy="50" r="11.5" stroke="rgb(31,30,30)" stroke-width="1" />
			<circle id="Ellipse 62" cx="697" cy="82" r="11.5" stroke="rgb(31,30,30)" stroke-width="1" />
			<circle id="Ellipse 65" cx="768" cy="83" r="11.5" stroke="rgb(31,30,30)" stroke-width="1" />
			<circle id="Ellipse 66" cx="733" cy="113" r="11.5" stroke="rgb(31,30,30)" stroke-width="1" />
		</g>
		<g id="3 стол">
			<rect id="Rectangle 195" width="40.000000" height="93.000000" x="712.500000" y="185.500000" stroke="rgb(31,30,30)" stroke-width="1" />
			<path id="3" d="M737.479 230.077C737.479 230.963 737.208 231.724 736.668 232.362C736.128 232.994 735.346 233.453 734.324 233.739L734.324 233.798C736.707 234.097 737.898 235.224 737.898 237.177C737.898 238.505 737.371 239.55 736.316 240.312C735.268 241.073 733.81 241.454 731.941 241.454C731.173 241.454 730.46 241.399 729.803 241.288C729.152 241.177 728.445 240.976 727.684 240.683L727.684 237.479C728.309 237.799 728.943 238.036 729.588 238.192C730.239 238.342 730.838 238.417 731.385 238.417C732.231 238.417 732.846 238.3 733.23 238.065C733.621 237.825 733.816 237.45 733.816 236.942C733.816 236.552 733.716 236.252 733.514 236.044C733.312 235.829 732.986 235.67 732.537 235.565C732.088 235.455 731.502 235.399 730.779 235.399L729.9 235.399L729.9 232.499L730.799 232.499C732.758 232.499 733.738 231.998 733.738 230.995C733.738 230.618 733.592 230.338 733.299 230.155C733.012 229.973 732.625 229.882 732.137 229.882C731.225 229.882 730.281 230.188 729.305 230.8L727.703 228.222C728.458 227.701 729.23 227.33 730.018 227.108C730.812 226.887 731.72 226.776 732.742 226.776C734.22 226.776 735.379 227.069 736.219 227.655C737.059 228.241 737.479 229.049 737.479 230.077Z" fill="rgb(31,30,30)" fill-rule="nonzero" />
			<circle id="Ellipse 67" cx="697" cy="197" r="11.5" stroke="rgb(31,30,30)" stroke-width="1" />
			<circle id="Ellipse 68" cx="768" cy="198" r="11.5" stroke="rgb(31,30,30)" stroke-width="1" />
			<circle id="Ellipse 69" cx="697" cy="230" r="11.5" stroke="rgb(31,30,30)" stroke-width="1" />
			<circle id="Ellipse 70" cx="768" cy="231" r="11.5" stroke="rgb(31,30,30)" stroke-width="1" />
			<circle id="Ellipse 71" cx="697" cy="263" r="11.5" stroke="rgb(31,30,30)" stroke-width="1" />
			<circle id="Ellipse 72" cx="768" cy="264" r="11.5" stroke="rgb(31,30,30)" stroke-width="1" />
			<circle id="Ellipse 73" cx="733" cy="294" r="11.5" stroke="rgb(31,30,30)" stroke-width="1" />
		</g>
		<g id="5 стол">
			<rect id="Rectangle 190" width="41.000000" height="94.000000" x="494.000000" y="278.000000" fill="rgb(191,191,191)" />
			<rect id="Rectangle 190" width="40.000000" height="93.000000" x="494.500000" y="278.500000" stroke="rgb(191,191,191)" stroke-width="1" />
			<path id="5" d="M515.484 322.903C516.305 322.903 517.044 323.095 517.701 323.479C518.365 323.857 518.88 324.394 519.244 325.091C519.615 325.787 519.801 326.591 519.801 327.503C519.801 329.098 519.319 330.322 518.355 331.175C517.398 332.028 515.947 332.454 514 332.454C512.333 332.454 510.973 332.197 509.918 331.683L509.918 328.519C510.484 328.779 511.122 328.994 511.832 329.163C512.548 329.332 513.163 329.417 513.678 329.417C514.394 329.417 514.944 329.267 515.328 328.968C515.712 328.662 515.904 328.213 515.904 327.62C515.904 327.073 515.709 326.647 515.318 326.341C514.928 326.035 514.335 325.882 513.541 325.882C512.936 325.882 512.281 325.996 511.578 326.224L510.162 325.521L510.699 317.981L518.844 317.981L518.844 321.194L513.98 321.194L513.805 323.079C514.312 322.981 514.674 322.929 514.889 322.923C515.104 322.91 515.302 322.903 515.484 322.903Z" opacity="0.899999976" fill="rgb(31,30,30)" fill-rule="nonzero" />
			<circle id="Ellipse 74" cx="479" cy="290" r="12" fill="rgb(191,191,191)" />
			<circle id="Ellipse 74" cx="479" cy="290" r="11.5" stroke="rgb(191,191,191)" stroke-width="1" />
			<circle id="Ellipse 75" cx="550" cy="291" r="12" fill="rgb(191,191,191)" />
			<circle id="Ellipse 75" cx="550" cy="291" r="11.5" stroke="rgb(191,191,191)" stroke-width="1" />
			<circle id="Ellipse 76" cx="479" cy="323" r="12" fill="rgb(191,191,191)" />
			<circle id="Ellipse 76" cx="479" cy="323" r="11.5" stroke="rgb(191,191,191)" stroke-width="1" />
			<circle id="Ellipse 77" cx="550" cy="324" r="12" fill="rgb(191,191,191)" />
			<circle id="Ellipse 77" cx="550" cy="324" r="11.5" stroke="rgb(191,191,191)" stroke-width="1" />
			<circle id="Ellipse 78" cx="479" cy="356" r="12" fill="rgb(191,191,191)" />
			<circle id="Ellipse 78" cx="479" cy="356" r="11.5" stroke="rgb(191,191,191)" stroke-width="1" />
			<circle id="Ellipse 79" cx="550" cy="357" r="12" fill="rgb(191,191,191)" />
			<circle id="Ellipse 79" cx="550" cy="357" r="11.5" stroke="rgb(191,191,191)" stroke-width="1" />
			<circle id="Ellipse 80" cx="515" cy="387" r="12" fill="rgb(191,191,191)" />
			<circle id="Ellipse 80" cx="515" cy="387" r="11.5" stroke="rgb(191,191,191)" stroke-width="1" />
		</g>
		<g id="6 стол">
			<rect id="Rectangle 184" width="40.000000" height="93.000000" x="273.500000" y="278.500000" stroke="rgb(31,30,30)" stroke-width="1" />
			<circle id="Ellipse 81" cx="258" cy="290" r="11.5" stroke="rgb(31,30,30)" stroke-width="1" />
			<circle id="Ellipse 82" cx="329" cy="291" r="11.5" stroke="rgb(31,30,30)" stroke-width="1" />
			<circle id="Ellipse 83" cx="258" cy="323" r="11.5" stroke="rgb(31,30,30)" stroke-width="1" />
			<circle id="Ellipse 84" cx="329" cy="324" r="11.5" stroke="rgb(31,30,30)" stroke-width="1" />
			<circle id="Ellipse 85" cx="258" cy="356" r="11.5" stroke="rgb(31,30,30)" stroke-width="1" />
			<circle id="Ellipse 86" cx="329" cy="357" r="11.5" stroke="rgb(31,30,30)" stroke-width="1" />
			<circle id="Ellipse 87" cx="294" cy="387" r="11.5" stroke="rgb(31,30,30)" stroke-width="1" />
			<path id="6" d="M288.684 327.224C288.684 325.231 288.967 323.62 289.533 322.39C290.106 321.153 290.946 320.241 292.053 319.655C293.166 319.069 294.536 318.776 296.164 318.776C296.743 318.776 297.421 318.832 298.195 318.942L298.195 321.96C297.544 321.836 296.838 321.774 296.076 321.774C294.787 321.774 293.827 322.058 293.195 322.624C292.564 323.19 292.219 324.115 292.16 325.397L292.277 325.397C292.863 324.291 293.804 323.737 295.1 323.737C296.369 323.737 297.352 324.147 298.049 324.968C298.752 325.782 299.104 326.918 299.104 328.376C299.104 329.945 298.661 331.185 297.775 332.097C296.89 333.002 295.653 333.454 294.064 333.454C292.378 333.454 291.06 332.907 290.109 331.813C289.159 330.72 288.684 329.19 288.684 327.224ZM293.977 330.397C294.387 330.397 294.719 330.244 294.973 329.938C295.233 329.626 295.363 329.131 295.363 328.454C295.363 327.295 294.914 326.716 294.016 326.716C293.573 326.716 293.212 326.866 292.932 327.165C292.658 327.465 292.521 327.829 292.521 328.259C292.521 328.884 292.655 329.398 292.922 329.802C293.189 330.199 293.54 330.397 293.977 330.397Z" fill="rgb(31,30,30)" fill-rule="nonzero" />
		</g>
		<g id="11 стол">
			<rect id="Rectangle 194" width="40.000000" height="93.000000" x="27.500000" y="185.500000" stroke="rgb(31,30,30)" stroke-width="1" />
			<circle id="Ellipse 88" cx="12" cy="197" r="11.5" stroke="rgb(31,30,30)" stroke-width="1" />
			<circle id="Ellipse 89" cx="83" cy="198" r="11.5" stroke="rgb(31,30,30)" stroke-width="1" />
			<circle id="Ellipse 90" cx="12" cy="230" r="11.5" stroke="rgb(31,30,30)" stroke-width="1" />
			<circle id="Ellipse 91" cx="83" cy="231" r="11.5" stroke="rgb(31,30,30)" stroke-width="1" />
			<circle id="Ellipse 92" cx="12" cy="263" r="11.5" stroke="rgb(31,30,30)" stroke-width="1" />
			<circle id="Ellipse 93" cx="83" cy="264" r="11.5" stroke="rgb(31,30,30)" stroke-width="1" />
			<circle id="Ellipse 94" cx="48" cy="294" r="11.5" stroke="rgb(31,30,30)" stroke-width="1" />
			<path id="11" d="M45.1992 241.259L41.2832 241.259L41.2832 233.7C41.2832 232.782 41.3027 231.942 41.3418 231.181C41.1009 231.474 40.8014 231.78 40.4434 232.099L38.8223 233.437L36.8203 230.976L41.7227 226.981L45.1992 226.981L45.1992 241.259ZM56.918 241.259L53.002 241.259L53.002 233.7C53.002 232.782 53.0215 231.942 53.0605 231.181C52.8197 231.474 52.5202 231.78 52.1621 232.099L50.541 233.437L48.5391 230.976L53.4414 226.981L56.918 226.981L56.918 241.259Z" fill="rgb(31,30,30)" fill-rule="nonzero" />
		</g>
		<g id="9 стол">
			<rect id="Rectangle 181" width="61.000000" height="36.000000" x="222.500000" y="27.500000" stroke="rgb(188.062,51.332,36.0453)" stroke-width="1" />
			<path id="9" d="M256.064 45.5146C256.064 48.3076 255.462 50.3291 254.258 51.5791C253.053 52.8291 251.126 53.4541 248.477 53.4541C247.604 53.4541 246.94 53.4215 246.484 53.3564L246.484 50.2998C247.044 50.404 247.604 50.4561 248.164 50.4561C249.544 50.4561 250.609 50.1729 251.357 49.6064C252.106 49.0335 252.513 48.1318 252.578 46.9014L252.461 46.9014C252.207 47.3701 251.956 47.7087 251.709 47.917C251.462 48.1253 251.159 48.2848 250.801 48.3955C250.443 48.5062 249.997 48.5615 249.463 48.5615C248.226 48.5615 247.259 48.1481 246.562 47.3213C245.866 46.4945 245.518 45.3551 245.518 43.9033C245.518 42.3213 245.967 41.0811 246.865 40.1826C247.77 39.2842 249.007 38.835 250.576 38.835C252.321 38.835 253.672 39.4144 254.629 40.5732C255.586 41.7321 256.064 43.3792 256.064 45.5146ZM250.684 41.9209C250.26 41.9209 249.915 42.0739 249.648 42.3799C249.388 42.6859 249.258 43.1774 249.258 43.8545C249.258 44.3883 249.372 44.8148 249.6 45.1338C249.827 45.4463 250.176 45.6025 250.645 45.6025C251.068 45.6025 251.436 45.4495 251.748 45.1436C252.061 44.8376 252.217 44.4697 252.217 44.04C252.217 43.4606 252.07 42.9626 251.777 42.5459C251.491 42.1292 251.126 41.9209 250.684 41.9209Z" fill="rgb(188.062,51.332,36.0453)" fill-rule="nonzero" />
			<circle id="Ellipse 50" cx="12" cy="12" r="11.5" stroke="rgb(188.062,51.332,36.0453)" stroke-width="1" transform="matrix(-1,0,0,-1,263,91)" />
			<circle id="Ellipse 51" cx="12" cy="12" r="11.5" stroke="rgb(188.062,51.332,36.0453)" stroke-width="1" transform="matrix(-1,0,0,-1,218,55)" />
			<circle id="Ellipse 52" cx="12" cy="12" r="11.5" stroke="rgb(188.062,51.332,36.0453)" stroke-width="1" transform="matrix(-1,0,0,-1,263,24)" />
		</g>
		<g id="8 стол">
			<rect id="Rectangle 193" width="61.000000" height="36.000000" x="187.500000" y="169.500000" stroke="rgb(188.062,51.332,36.0453)" stroke-width="1" />
			<path id="8" d="M215.898 180.776C217.402 180.776 218.571 181.079 219.404 181.685C220.244 182.29 220.664 183.149 220.664 184.263C220.664 185.018 220.465 185.682 220.068 186.255C219.678 186.821 219.056 187.316 218.203 187.739C219.258 188.338 220 188.937 220.43 189.536C220.866 190.129 221.084 190.77 221.084 191.46C221.084 192.729 220.625 193.713 219.707 194.409C218.789 195.106 217.507 195.454 215.859 195.454C214.18 195.454 212.894 195.116 212.002 194.438C211.11 193.755 210.664 192.775 210.664 191.499C210.664 190.672 210.863 189.969 211.26 189.39C211.657 188.804 212.324 188.273 213.262 187.798C212.507 187.29 211.953 186.746 211.602 186.167C211.257 185.581 211.084 184.94 211.084 184.243C211.084 183.149 211.51 182.3 212.363 181.694C213.216 181.082 214.395 180.776 215.898 180.776ZM214.199 191.343C214.199 191.746 214.342 192.072 214.629 192.319C214.915 192.56 215.312 192.681 215.82 192.681C216.966 192.681 217.539 192.261 217.539 191.421C217.539 191.102 217.412 190.789 217.158 190.483C216.911 190.171 216.465 189.823 215.82 189.438C215.241 189.744 214.824 190.054 214.57 190.366C214.323 190.672 214.199 190.998 214.199 191.343ZM215.879 183.56C215.547 183.56 215.267 183.657 215.039 183.853C214.811 184.041 214.697 184.289 214.697 184.595C214.697 185.155 215.078 185.649 215.84 186.079C216.302 185.812 216.618 185.568 216.787 185.347C216.956 185.125 217.041 184.875 217.041 184.595C217.041 184.282 216.927 184.032 216.699 183.843C216.471 183.654 216.198 183.56 215.879 183.56Z" fill="rgb(188.062,51.332,36.0453)" fill-rule="nonzero" />
			<circle id="Ellipse 57" cx="12" cy="12" r="11.5" stroke="rgb(188.062,51.332,36.0453)" stroke-width="1" transform="matrix(-1,0,0,-1,228,233)" />
			<circle id="Ellipse 58" cx="12" cy="12" r="11.5" stroke="rgb(188.062,51.332,36.0453)" stroke-width="1" transform="matrix(-1,0,0,-1,183,197)" />
			<circle id="Ellipse 59" cx="12" cy="12" r="11.5" stroke="rgb(188.062,51.332,36.0453)" stroke-width="1" transform="matrix(-1,0,0,-1,228,166)" />
		</g>
		<g id="1 стол">
			<rect id="Rectangle 178" width="84.000000" height="29.000000" x="507.000000" y="35.000000" fill="rgb(164.688,20.8811,4.80338)" />
			<path id="1" d="M552.199 56.2588L548.283 56.2588L548.283 48.7002C548.283 47.7822 548.303 46.9424 548.342 46.1807C548.101 46.4736 547.801 46.7796 547.443 47.0986L545.822 48.4365L543.82 45.9756L548.723 41.9814L552.199 41.9814L552.199 56.2588Z" fill="rgb(255,255,255)" fill-rule="nonzero" />
			<circle id="Ellipse 40" cx="527" cy="20" r="12" fill="rgb(164.688,20.8811,4.80338)" />
			<circle id="Ellipse 41" cx="570" cy="20" r="12" fill="rgb(164.688,20.8811,4.80338)" />
			<circle id="Ellipse 42" cx="606" cy="48" r="12" fill="rgb(164.688,20.8811,4.80338)" />
			<circle id="Ellipse 43" cx="570" cy="79" r="12" fill="rgb(164.688,20.8811,4.80338)" />
			<circle id="Ellipse 44" cx="527" cy="79" r="12" fill="rgb(164.688,20.8811,4.80338)" />
		</g>
		<g id="4 стол">
			<rect id="Rectangle 188" width="83.000000" height="28.000000" x="507.500000" y="182.500000" stroke="rgb(188.062,51.332,36.0453)" stroke-width="1" />
			<path id="4" d="M554.416 199.495L552.844 199.495L552.844 202.259L549.035 202.259L549.035 199.495L543.342 199.495L543.342 196.663L549.279 187.981L552.844 187.981L552.844 196.614L554.416 196.614L554.416 199.495ZM549.035 196.614L549.035 194.954C549.035 194.642 549.045 194.222 549.064 193.694C549.091 193.16 549.11 192.881 549.123 192.854L549.016 192.854C548.794 193.356 548.544 193.825 548.264 194.261L546.682 196.614L549.035 196.614Z" fill="rgb(188.062,51.332,36.0453)" fill-rule="nonzero" />
			<circle id="Ellipse 45" cx="527" cy="167" r="11.5" stroke="rgb(188.062,51.332,36.0453)" stroke-width="1" />
			<circle id="Ellipse 46" cx="570" cy="167" r="11.5" stroke="rgb(188.062,51.332,36.0453)" stroke-width="1" />
			<circle id="Ellipse 47" cx="606" cy="195" r="11.5" stroke="rgb(188.062,51.332,36.0453)" stroke-width="1" />
			<circle id="Ellipse 48" cx="570" cy="226" r="11.5" stroke="rgb(188.062,51.332,36.0453)" stroke-width="1" />
			<circle id="Ellipse 49" cx="527" cy="226" r="11.5" stroke="rgb(188.062,51.332,36.0453)" stroke-width="1" />
		</g>
		<g id="7 стол">
			<rect id="Rectangle 183" width="84.000000" height="29.000000" x="320.000000" y="183.000000" fill="rgb(164.688,20.8811,4.80338)" />
			<path id="7" d="M358.041 204.259L362.943 193.194L356.762 193.194L356.762 190.001L367.064 190.001L367.064 192.276L362.035 204.259L358.041 204.259Z" fill="rgb(255,255,255)" fill-rule="nonzero" />
			<circle id="Ellipse 53" cx="383" cy="227" r="12" fill="rgb(164.688,20.8811,4.80338)" />
			<circle id="Ellipse 55" cx="419" cy="197" r="12" fill="rgb(164.688,20.8811,4.80338)" />
			<circle id="Ellipse 56" cx="305" cy="197" r="12" fill="rgb(164.688,20.8811,4.80338)" />
			<circle id="Ellipse 54" cx="340" cy="227" r="12" fill="rgb(164.688,20.8811,4.80338)" />
		</g>
	</g>
</svg>
