<svg xmlns="http://www.w3.org/2000/svg" xmlns:xlink="http://www.w3.org/1999/xlink"><defs>
        <clipPath id="a">
            <path fill="#FFF" d="M0 12.001h55v18H0z"/>
        </clipPath>
    </defs><symbol id="arrow" viewBox="0 0 68 42.002"><g fill="none">
    
    <path d="M0 1.001h67v40H0z"/>
    <path d="M33.709 34.437a18.82 18.82 0 0 0 4.459 3.321 18.761 18.761 0 0 0 5.226 1.878c1.834.366 3.682.458 5.543.274a18.748 18.748 0 0 0 5.384-1.355 18.798 18.798 0 0 0 4.761-2.866 18.869 18.869 0 0 0 3.729-4.13 18.935 18.935 0 0 0 2.374-5.042c.543-1.798.815-3.637.815-5.516 0-1.88-.272-3.718-.815-5.517a18.934 18.934 0 0 0-2.374-5.04 18.87 18.87 0 0 0-3.729-4.132 18.8 18.8 0 0 0-4.761-2.865 18.747 18.747 0 0 0-5.384-1.355 18.733 18.733 0 0 0-5.543.274 18.76 18.76 0 0 0-5.226 1.878 18.818 18.818 0 0 0-4.46 3.32l-1.417-1.41a20.812 20.812 0 0 1 4.93-3.673 20.75 20.75 0 0 1 5.78-2.076 20.721 20.721 0 0 1 6.133-.303c2.059.204 4.044.703 5.955 1.498a20.787 20.787 0 0 1 5.265 3.17 20.858 20.858 0 0 1 4.122 4.566 20.925 20.925 0 0 1 2.624 5.57c.6 1.987.9 4.019.9 6.095 0 2.076-.3 4.108-.9 6.095a20.924 20.924 0 0 1-2.624 5.57 20.858 20.858 0 0 1-4.122 4.567 20.787 20.787 0 0 1-5.265 3.169 20.737 20.737 0 0 1-5.955 1.498 20.724 20.724 0 0 1-6.132-.303 20.752 20.752 0 0 1-5.78-2.076 20.812 20.812 0 0 1-4.93-3.672l1.417-1.412Zm-1.39 1.412h-.028a.99.99 0 0 1 .003-1.414.99.99 0 0 1 1.415.002v.029l-1.39 1.383Zm1.39-28.313v.028a.99.99 0 0 1-1.415.003.99.99 0 0 1-.003-1.414h.029l1.389 1.383Z" fill="#1F1E1E"/>
    <g clip-path="url(#a)">
        <path d="M0 12.001h55v18H0z"/>
        <path d="M3.929 21.001h47.143M45.571 15.751l5.5 5.25-5.5 5.25" stroke="#1F1E1E" stroke-linecap="round" stroke-linejoin="round" stroke-width="2"/>
    </g>
</g></symbol><symbol id="LENNI" viewBox="0 0 1920 325"><g fill="none">
    <path d="M485.389 0v317.073h161.956V325H0V0h485.389Zm190.064 325h200.745v-7.927H713.443V159.935h126.765v-7.926H713.443V7.927H876V0H675.453v325ZM941.896 8.393V325h-37.99V0h37.99c16.395 0 56.784 3.73 92.374 35.438 28.79 25.179 47.59 60.15 57.18 108.177V0h37.99v325h-37.99V203.3C1083.46 22.382 976.286 8.393 941.896 8.393ZM1207.45 325V8.393c34.39 0 141.56 13.989 149.56 194.907V325H1395V0h-37.99v143.615c-9.6-48.027-28.4-82.998-57.19-108.177C1264.23 3.73 1223.84 0 1207.45 0h-37.99v325h37.99ZM1435.01 0H1920v325h-484.99V0Z" fill="#1F1E1E" fill-rule="evenodd"/>
</g></symbol><symbol id="logo" viewBox="0 0 202 147"><g fill="none">
    <path d="M0 0h202v147H0z"/>
    <path fill="#1F1E1E" d="M0 0h147v147H0z"/>
    <path d="M26.634 72.439h13.331V73h-18.05V49.999H26.6v.033h.033v22.407ZM43.931 73h18.117v-.561H48.618V61.285h10.494v-.594H48.618V50.56h13.43v-.561H43.933V73Zm26.767-22.44V73h-4.686V49.999H70.7c6.468 0 10.956 4.191 12.375 10.329V49.999h4.686V73h-4.686v-8.547C82.414 51.649 73.57 50.56 70.7 50.56ZM97.39 73V50.56c2.871 0 11.715 1.089 12.375 13.893V73h4.686V49.999h-4.686v10.329c-1.419-6.138-5.907-10.329-12.375-10.329h-4.686V73h4.686Zm26.69 0h-4.686V49.999h4.686V73Z" fill="#FFF" fill-rule="evenodd"/>
    <path fill="#BC3324" d="M81 92h121v42H81z"/>
    <path d="M132.644 103.09V124h4.26v-7.23h5.07l4.89 7.2h4.86l-5.16-7.65c3-.78 5.28-2.64 5.28-6.81 0-5.22-3.81-6.87-8.25-6.87-4.68 0-6.03 3.51-6.69 7.41v-6.96h-4.26ZM109.462 124h-.54l7.2-20.91h4.53l8.1 20.91h-4.47l-3.33-8.55h-8.55l-2.94 8.55Zm52.652 0-.03-20.4h-8.61v-.51h21.51v.51h-8.61V124h-4.26Zm-24.04-16.53c.81-2.94 2.91-4.14 4.77-4.29 4.47-.42 4.65 2.43 4.65 6.33 0 6.33-3.36 6.75-6.24 6.75h-4.35s-.12-4.14 1.17-8.79Zm-17.302 7.47-4.35-11.19-3.84 11.19h8.19Z" fill="#FFF" fill-rule="evenodd"/>
</g></symbol></svg>