<svg viewBox="0 0 24 24" xmlns="http://www.w3.org/2000/svg" fill="none">
	<path d="M16.48 10.4098C16.09 10.7998 15.44 10.7998 15.05 10.4098L10.58 5.94981L3.53004 12.9898L2.87004 12.3598C2.30823 11.7973 1.99268 11.0348 1.99268 10.2398C1.99268 9.4448 2.30823 8.68231 2.87004 8.11981L7.11004 3.87981C7.67254 3.318 8.43503 3.00245 9.23004 3.00245C10.025 3.00245 10.7875 3.318 11.35 3.87981L16.48 8.99981C16.87 9.38981 16.87 10.0198 16.48 10.4098ZM17.18 8.28981C17.96 9.06981 17.96 10.3398 17.18 11.1198C15.91 12.3898 14.57 11.3398 14.35 11.1198L10.59 7.35981L5.02004 12.9298C4.92733 13.0223 4.85378 13.1322 4.8036 13.2532C4.75342 13.3742 4.72759 13.5038 4.72759 13.6348C4.72759 13.7658 4.75342 13.8955 4.8036 14.0164C4.85378 14.1374 4.92733 14.2473 5.02004 14.3398C5.41004 14.7298 6.04004 14.7298 6.44004 14.3398L11.06 9.71981L11.77 10.4298L7.15004 15.0498C7.05733 15.1423 6.98378 15.2522 6.9336 15.3732C6.88342 15.4942 6.85759 15.6238 6.85759 15.7548C6.85759 15.8858 6.88342 16.0155 6.9336 16.1364C6.98378 16.2574 7.05733 16.3673 7.15004 16.4598C7.54004 16.8498 8.17004 16.8498 8.57004 16.4598L13.19 11.8398L13.9 12.5498L9.28004 17.1698C9.18745 17.2624 9.11401 17.3723 9.06391 17.4933C9.0138 17.6142 8.98802 17.7439 8.98802 17.8748C8.98802 18.0057 9.0138 18.1354 9.06391 18.2563C9.11401 18.3773 9.18745 18.4872 9.28004 18.5798C9.37262 18.6724 9.48253 18.7458 9.60349 18.7959C9.72446 18.846 9.8541 18.8718 9.98503 18.8718C10.116 18.8718 10.2456 18.846 10.3666 18.7959C10.4875 18.7458 10.5975 18.6724 10.69 18.5798L15.31 13.9598L16.02 14.6698L11.4 19.2898C11.3075 19.3824 11.234 19.4923 11.1839 19.6133C11.1338 19.7342 11.108 19.8639 11.108 19.9948C11.108 20.1257 11.1338 20.2554 11.1839 20.3763C11.234 20.4973 11.3075 20.6072 11.4 20.6998C11.587 20.8868 11.8406 20.9918 12.105 20.9918C12.236 20.9918 12.3656 20.966 12.4866 20.9159C12.6075 20.8658 12.7175 20.7924 12.81 20.6998L21.13 12.3598C21.6918 11.7973 22.0074 11.0348 22.0074 10.2398C22.0074 9.4448 21.6918 8.68231 21.13 8.11981L16.89 3.87981C16.3379 3.32824 15.5926 3.01346 14.8122 3.00226C14.0318 2.99106 13.2778 3.28431 12.71 3.81981L17.18 8.28981Z" fill="rgb(188.062,51.332,36.0453)" fill-rule="nonzero" />
</svg>
