<svg viewBox="0 0 24 24" xmlns="http://www.w3.org/2000/svg" xmlns:xlink="http://www.w3.org/1999/xlink" width="24.000000" height="24.000000" fill="none">
	<path d="M20 8.00001L14 2.74001C13.45 2.24805 12.7379 1.97607 12 1.97607C11.2621 1.97607 10.55 2.24805 10 2.74001L4 8.00001C3.68237 8.28408 3.4289 8.63256 3.25648 9.02225C3.08405 9.41194 2.99662 9.83389 3 10.26L3 19C3 19.7957 3.31607 20.5587 3.87868 21.1213C4.44129 21.6839 5.20435 22 6 22L18 22C18.7957 22 19.5587 21.6839 20.1213 21.1213C20.6839 20.5587 21 19.7957 21 19L21 10.25C21.002 9.82557 20.9139 9.40555 20.7415 9.01769C20.5691 8.62983 20.3164 8.28296 20 8.00001ZM14 20L10 20L10 15C10 14.7348 10.1054 14.4804 10.2929 14.2929C10.4804 14.1054 10.7348 14 11 14L13 14C13.2652 14 13.5196 14.1054 13.7071 14.2929C13.8946 14.4804 14 14.7348 14 15L14 20Z" fill="rgb(188.062,51.332,36.0453)" fill-rule="evenodd" />
</svg>
