<svg viewBox="0 0 24 24" xmlns="http://www.w3.org/2000/svg" fill="none">
	<path d="M12 23C18.0751 23 23 18.0751 23 12C23 5.92487 18.0751 1 12 1C5.92487 1 1 5.92487 1 12C1 18.0751 5.92487 23 12 23ZM13 7.6L13 12C13 12.56 12.56 13 12 13C11.44 13 11 12.56 11 12L11 7.6C11 7.04 11.44 6.6 12 6.6C12.56 6.6 13 7.04 13 7.6ZM13.011 16.4C13.011 15.84 12.571 15.4 12.011 15.4L12 15.4C11.44 15.4 11 15.84 11 16.4C11 16.96 11.44 17.4 12 17.4L12.011 17.4C12.571 17.4 13.011 16.96 13.011 16.4Z" fill="rgb(188.062,51.332,36.0453)" fill-rule="evenodd" />
</svg>
